# Blender v2.79 (sub 0) OBJ File: ''
# www.blender.org
mtllib proto.mtl
o Box003
v -58.698898 -0.403400 -0.122300
v -17.497101 -0.403400 -0.122300
v -17.497101 12.254100 -0.122299
v 0.000100 27.401199 -0.122299
v 45.941601 12.070600 -0.122299
v 45.941601 -0.403400 -0.122300
v 59.304100 -0.403400 -0.122300
v 59.304100 27.401199 -0.122299
v 36.773701 12.070600 -0.122299
v 1.710000 0.344100 -0.122300
v 1.710000 27.401199 -0.122299
v 36.773701 -0.403400 -0.122300
v -8.117400 -0.403400 -0.122300
v 0.000100 0.344100 -0.122300
v -8.117400 12.254100 -0.122299
v -58.698898 27.401199 -0.122299
v -58.698898 27.401199 -1.661699
v -58.698898 -0.403400 -1.661700
v -17.497101 -0.403400 -1.661700
v 36.773701 -0.403400 -1.661700
v -8.117400 -0.403400 -1.661700
v 36.773701 12.070600 -1.661700
v 45.941601 12.070600 -1.661700
v 45.941601 -0.403400 -1.661700
v 59.304100 -0.403400 -1.661700
v 59.304100 27.401199 -1.661699
v 1.710000 27.401199 -1.661699
v 1.710000 28.645397 49.049000
v 1.710000 0.344098 49.049000
v 1.710000 0.344098 38.746101
v 1.710000 19.667198 38.746101
v 1.710000 19.667200 20.591801
v 1.710000 0.344099 20.591801
v 1.710000 28.645401 -47.839199
v 1.710000 0.344100 -1.661700
v 1.710000 0.344101 -27.908300
v 1.710000 19.667202 -27.908300
v 1.710000 19.667202 -46.062599
v 1.710000 0.344102 -47.839199
v 1.710000 0.344102 -46.062599
v 0.000100 0.344099 20.591801
v 0.000100 19.667202 -27.908300
v 0.000100 0.344101 -27.908300
v 0.000100 0.344100 -1.661700
v 0.000100 27.401199 -1.661699
v 0.000100 19.667200 20.591801
v 0.000100 19.667198 38.746101
v 0.000100 28.645397 49.049000
v 0.000100 0.344098 38.746101
v 0.000100 0.344098 49.049000
v 0.000100 28.645401 -47.839199
v 0.000100 19.667202 -46.062599
v 0.000100 0.344102 -46.062599
v 0.000100 0.344102 -47.839199
v -17.497101 12.254100 -1.661700
v -8.117400 12.254100 -1.661700
vt 1.000000 0.000000
vt 0.650800 0.000000
vt 0.650800 0.455200
vt 0.502600 1.000000
vt 0.113200 0.448600
vt 0.113200 0.000000
vt 0.000000 0.000000
vt 0.000000 1.000000
vt 0.190900 0.448600
vt 0.488100 0.026900
vt 0.488100 1.000000
vt 0.190900 0.000000
vt 0.571400 0.000000
vt 0.502600 0.026900
vt 0.571400 0.455200
vt 1.000000 1.000000
vt 0.000000 1.000000
vt 1.000000 1.000000
vt 0.000000 0.000000
vt 0.000000 1.000000
vt 0.349200 1.000000
vt 0.349200 0.000000
vt 0.000000 0.000000
vt 0.809100 1.000000
vt 0.809100 0.000000
vt 0.428600 0.000000
vt 0.428600 1.000000
vt 0.650300 0.882600
vt 0.112900 0.882600
vt 0.112900 0.000000
vt 0.650300 0.000000
vt 1.000000 0.349700
vt 1.000000 0.887100
vt 0.000000 0.887100
vt 0.000000 0.349700
vt 0.887100 0.882600
vt 0.349700 0.882600
vt 0.349700 0.000000
vt 0.887100 0.000000
vt 1.000000 1.000000
vt 1.000000 0.000000
vt 0.886800 0.000000
vt 0.886800 1.000000
vt 0.000000 1.000000
vt 1.000000 1.000000
vt 1.000000 0.000000
vt 0.000000 1.000000
vt 0.488100 1.000000
vt 0.488100 0.000000
vt 0.000000 0.000000
vt 1.000000 1.000000
vt 1.000000 0.000000
vt 0.893700 0.000000
vt 0.893700 0.682800
vt 0.706300 0.682800
vt 0.492500 0.956000
vt 0.706300 0.000000
vt 0.492500 0.000000
vt 0.000000 1.000000
vt 0.476600 0.956000
vt 0.476600 0.000000
vt 0.205700 0.000000
vt 0.205700 0.682800
vt 0.018300 0.682800
vt 0.000000 0.000000
vt 0.018300 0.000000
vt 0.706300 1.000000
vt 0.706300 0.000000
vt 0.492500 0.000000
vt 0.492500 1.000000
vt 0.794300 0.682800
vt 0.794300 0.000000
vt 0.523400 0.000000
vt 0.523400 0.956000
vt 0.507500 0.956000
vt 0.507500 0.000000
vt 0.293700 0.000000
vt 0.293700 0.682800
vt 0.106300 0.682800
vt 0.000000 1.000000
vt 0.106300 0.000000
vt 0.000000 0.000000
vt 1.000000 1.000000
vt 0.981700 0.682800
vt 0.981700 0.000000
vt 1.000000 0.000000
vt 1.000000 1.000000
vt 1.000000 0.000000
vt 0.502600 0.000000
vt 0.502600 1.000000
vt 0.000000 0.000000
vt 0.497400 1.000000
vt 0.349200 0.455200
vt 0.511900 0.026900
vt 0.511900 1.000000
vt 0.809100 0.448600
vt 1.000000 0.000000
vt 0.886800 0.000000
vt 0.886800 0.448600
vt 0.809100 0.000000
vt 0.497400 0.026900
vt 0.428600 0.000000
vt 0.428600 0.455200
vt 0.349200 0.000000
vt 0.000000 1.000000
vt 0.018300 1.000000
vt 0.018300 -0.000000
vt 0.000000 0.000000
vt 1.000000 1.000000
vt 0.000000 0.000000
vt 0.000000 1.000000
vt 1.000000 1.000000
vt 1.000000 0.000000
vt 0.000000 0.000000
vt 0.000000 1.000000
vt 1.000000 0.000000
vt 1.000000 1.000000
vt 1.000000 0.000000
vt 0.893700 0.000000
vt 0.893700 1.000000
vt 0.239700 0.390000
vt 0.239700 0.272300
vt 1.000000 0.272300
vt 1.000000 0.390000
vt 1.000000 0.272300
vt 1.000000 0.390000
vt 0.000000 0.390000
vt 0.000000 0.272300
vt 0.760300 0.272300
vt 0.760300 0.390000
vt 0.000000 0.390000
vt 0.000000 0.272300
vt 0.476600 1.000000
vt 0.476600 0.000000
vt 0.205700 0.000000
vt 0.205700 1.000000
vt 0.239700 0.390000
vt 0.239700 0.272300
vt 1.000000 0.272300
vt 1.000000 0.390000
vt 1.000000 0.272300
vt 1.000000 0.390000
vt -0.000000 0.390000
vt -0.000000 0.272300
vt 0.760300 0.272300
vt 0.760300 0.390000
vt 0.000000 0.390000
vt 0.000000 0.272300
vt 0.070400 0.152600
vt 0.070400 0.011200
vt 1.000000 0.011200
vt 1.000000 0.152600
vt 1.000000 0.011200
vt 1.000000 0.152600
vt 0.000000 0.152600
vt 0.000000 0.011200
vt 0.929600 0.011200
vt 0.929600 0.152600
vt 0.000000 0.152600
vt 0.000000 0.011200
vn 0.0000 -0.0000 1.0000
vn -1.0000 0.0000 0.0000
vn 0.0000 -1.0000 -0.0000
vn 1.0000 -0.0000 0.0000
vn 0.0000 1.0000 0.0000
vn 0.0000 0.0000 -1.0000
usemtl wire_007007012
s 1
f 1/1/1 2/2/1 3/3/1 4/4/1
f 5/5/1 6/6/1 7/7/1 8/8/1
f 9/9/1 5/5/1 8/8/1 10/10/1
f 8/8/1 11/11/1 10/10/1
f 12/12/1 9/9/1 10/10/1 13/13/1
f 13/13/1 10/10/1 14/14/1 15/15/1
f 15/15/1 14/14/1 4/4/1 3/3/1
f 1/1/1 4/4/1 16/16/1
f 17/17/2 18/18/2 1/1/2 16/19/2
f 18/20/3 19/21/3 2/22/3 1/23/3
f 20/24/3 12/25/3 13/26/3 21/27/3
f 12/28/4 20/29/4 22/30/4 9/31/4
f 9/32/3 22/33/3 23/34/3 5/35/3
f 24/36/2 6/37/2 5/38/2 23/39/2
f 25/40/3 7/41/3 6/42/3 24/43/3
f 25/44/4 26/45/4 8/46/4 7/7/4
f 26/47/5 27/48/5 11/49/5 8/50/5
f 28/51/4 29/52/4 30/53/4 31/54/4
f 28/51/4 31/54/4 32/55/4 11/56/4
f 32/55/4 33/57/4 10/58/4 11/56/4
f 34/59/4 28/51/4 11/56/4 27/60/4
f 27/60/4 35/61/4 36/62/4 37/63/4
f 34/59/4 27/60/4 37/63/4 38/64/4
f 39/65/4 34/59/4 38/64/4 40/66/4
f 33/67/3 41/68/3 14/69/3 10/70/3
f 42/71/2 43/72/2 44/73/2 45/74/2
f 4/75/2 14/76/2 41/77/2 46/78/2
f 4/75/2 46/78/2 47/79/2 48/80/2
f 47/79/2 49/81/2 50/82/2 48/80/2
f 45/74/2 4/75/2 48/80/2 51/83/2
f 42/71/2 45/74/2 51/83/2 52/84/2
f 53/85/2 52/84/2 51/83/2 54/86/2
f 17/87/5 16/88/5 4/89/5 45/90/5
f 18/91/6 17/17/6 45/92/6 55/93/6
f 35/94/6 27/95/6 26/45/6 22/96/6
f 26/45/6 25/97/6 24/98/6 23/99/6
f 26/45/6 23/99/6 22/96/6
f 35/94/6 22/96/6 20/100/6 44/101/6
f 44/101/6 20/100/6 21/102/6 45/92/6
f 45/92/6 21/102/6 56/103/6 55/93/6
f 18/91/6 55/93/6 19/104/6
f 39/105/3 40/106/3 53/107/3 54/108/3
f 34/59/6 39/109/6 54/86/6 51/110/6
f 28/111/5 34/112/5 51/113/5 48/114/5
f 29/115/1 28/51/1 48/116/1 50/82/1
f 29/117/3 50/118/3 49/119/3 30/120/3
f 30/121/6 49/122/6 47/123/6 31/124/6
f 46/125/3 32/126/3 31/127/3 47/128/3
f 41/129/1 33/130/1 32/131/1 46/132/1
f 35/133/3 44/134/3 43/135/3 36/136/3
f 36/137/6 43/138/6 42/139/6 37/140/6
f 52/141/3 38/142/3 37/143/3 42/144/3
f 53/145/1 40/146/1 38/147/1 52/148/1
f 21/149/2 13/150/2 15/151/2 56/152/2
f 3/153/3 55/154/3 56/155/3 15/156/3
f 2/157/4 19/158/4 55/159/4 3/160/4
o Plane001
v -59.909199 -0.000001 25.718599
v -59.909199 -0.000002 50.529499
v -29.954599 -0.000002 50.529499
v -29.954599 -0.000001 25.718599
v 0.000000 -0.000002 50.529499
v 0.000000 -0.000001 25.718599
v 29.954599 -0.000002 50.529499
v 29.954599 -0.000001 25.718599
v 59.909199 -0.000002 50.529499
v 59.909199 -0.000001 25.718599
v -59.909199 -0.000000 0.907700
v -29.954599 -0.000000 0.907700
v 0.000000 -0.000000 0.907700
v 29.954599 -0.000000 0.907700
v 59.909199 -0.000000 0.907700
v -59.909199 0.000001 -23.903200
v -29.954599 0.000001 -23.903200
v 0.000000 0.000001 -23.903200
v 29.954599 0.000001 -23.903200
v 59.909199 0.000001 -23.903200
v -59.909199 0.000002 -48.714100
v -29.954599 0.000002 -48.714100
v 0.000000 0.000002 -48.714100
v 29.954599 0.000002 -48.714100
v 59.909199 0.000002 -48.714100
vt 0.000000 0.250000
vt 0.000000 0.000000
vt 0.250000 0.000000
vt 0.250000 0.250000
vt 0.500000 0.000000
vt 0.500000 0.250000
vt 0.750000 0.000000
vt 0.750000 0.250000
vt 1.000000 0.000000
vt 1.000000 0.250000
vt 0.000000 0.500000
vt 0.250000 0.500000
vt 0.500000 0.500000
vt 0.750000 0.500000
vt 1.000000 0.500000
vt 0.000000 0.750000
vt 0.250000 0.750000
vt 0.500000 0.750000
vt 0.750000 0.750000
vt 1.000000 0.750000
vt 0.000000 1.000000
vt 0.250000 1.000000
vt 0.500000 1.000000
vt 0.750000 1.000000
vt 1.000000 1.000000
vn 0.0000 1.0000 0.0000
usemtl wire_007007012
s 1
f 57/161/7 58/162/7 59/163/7 60/164/7
f 60/164/7 59/163/7 61/165/7 62/166/7
f 62/166/7 61/165/7 63/167/7 64/168/7
f 64/168/7 63/167/7 65/169/7 66/170/7
f 67/171/7 57/161/7 60/164/7 68/172/7
f 68/172/7 60/164/7 62/166/7 69/173/7
f 69/173/7 62/166/7 64/168/7 70/174/7
f 70/174/7 64/168/7 66/170/7 71/175/7
f 72/176/7 67/171/7 68/172/7 73/177/7
f 73/177/7 68/172/7 69/173/7 74/178/7
f 74/178/7 69/173/7 70/174/7 75/179/7
f 75/179/7 70/174/7 71/175/7 76/180/7
f 77/181/7 72/176/7 73/177/7 78/182/7
f 78/182/7 73/177/7 74/178/7 79/183/7
f 79/183/7 74/178/7 75/179/7 80/184/7
f 80/184/7 75/179/7 76/180/7 81/185/7
